<svg width="18" height="18" viewBox="0 0 18 18" fill="none" xmlns="http://www.w3.org/2000/svg">
<path d="M2.05542 15.9445H15.9443" stroke="#30323D" stroke-width="1.04167" stroke-linecap="round" stroke-linejoin="round"/>
<path d="M2.82642 15.9447V9.69466C2.82642 8.54188 3.86114 7.61133 5.13892 7.61133H12.8542C14.132 7.61133 15.1667 8.54188 15.1667 9.69466V15.9447" stroke="#30323D" stroke-linecap="round" stroke-linejoin="round"/>
<path d="M4.52759 7.61114V5.64586C4.52759 4.81253 5.27759 4.13892 6.20814 4.13892H11.7984C12.722 4.13892 13.472 4.81253 13.472 5.64586V7.61114" stroke="#30323D" stroke-linecap="round" stroke-linejoin="round"/>
<path d="M3.11792 10.3751L3.37486 10.3821C3.88875 10.389 4.29848 10.8057 4.29848 11.3196V11.5487C4.29848 12.0626 4.71514 12.4862 5.23598 12.4862C5.74986 12.4862 6.17348 12.0696 6.17348 11.5487V11.3335C6.17348 10.8196 6.59014 10.396 7.11098 10.396C7.62486 10.396 8.04848 10.8126 8.04848 11.3335V11.5487C8.04848 12.0626 8.46514 12.4862 8.98598 12.4862C9.49986 12.4862 9.92348 12.0696 9.92348 11.5487V11.3335C9.92348 10.8196 10.3401 10.396 10.861 10.396C11.3749 10.396 11.7985 10.8126 11.7985 11.3335V11.5487C11.7985 12.0626 12.2151 12.4862 12.736 12.4862C13.2499 12.4862 13.6735 12.0696 13.6735 11.5487V11.3335C13.6735 10.8196 14.0901 10.396 14.611 10.396H14.9235" stroke="#30323D" stroke-linecap="round" stroke-linejoin="round"/>
<path d="M6.22192 4.13901V2.75012" stroke="#30323D" stroke-linecap="round" stroke-linejoin="round"/>
<path d="M11.7781 4.13901V2.75012" stroke="#30323D" stroke-linecap="round" stroke-linejoin="round"/>
<path d="M8.99976 4.13912V2.05579" stroke="#30323D" stroke-linecap="round" stroke-linejoin="round"/>
</svg>
