<svg width="20" height="20" viewBox="0 0 20 20" fill="none" xmlns="http://www.w3.org/2000/svg">
<path d="M14.1667 17.5001H5.83341C2.50008 17.5001 1.66675 16.6668 1.66675 13.3335V6.66679C1.66675 3.33346 2.50008 2.50012 5.83341 2.50012H14.1667C17.5001 2.50012 18.3334 3.33346 18.3334 6.66679V13.3335C18.3334 16.6668 17.5001 17.5001 14.1667 17.5001Z" stroke="#292D32" stroke-linecap="round" stroke-linejoin="round"/>
<path d="M11.6667 6.66687H15.8334" stroke="#292D32" stroke-linecap="round" stroke-linejoin="round"/>
<path d="M12.5002 10.0001H15.8336" stroke="#292D32" stroke-linecap="round" stroke-linejoin="round"/>
<path d="M14.1667 13.3335H15.8334" stroke="#292D32" stroke-linecap="round" stroke-linejoin="round"/>
<path d="M7.08353 9.40839C7.91656 9.40839 8.59186 8.73309 8.59186 7.90006C8.59186 7.06703 7.91656 6.39172 7.08353 6.39172C6.2505 6.39172 5.5752 7.06703 5.5752 7.90006C5.5752 8.73309 6.2505 9.40839 7.08353 9.40839Z" stroke="#292D32" stroke-linecap="round" stroke-linejoin="round"/>
<path d="M10.0001 13.6083C9.88341 12.4 8.92508 11.45 7.71675 11.3417C7.30008 11.3 6.87508 11.3 6.45008 11.3417C5.24175 11.4583 4.28341 12.4 4.16675 13.6083" stroke="#292D32" stroke-linecap="round" stroke-linejoin="round"/>
</svg>
